
<svg xmlns="http://www.w3.org/2000/svg" xml:space="preserve" style="shape-rendering:geometricPrecision; text-rendering:geometricPrecision; image-rendering:optimizeQuality; fill-rule:evenodd; clip-rule:evenodd"
 width="57.68" height="57.68" viewBox="0 0 57.68 57.68">
  <defs>
    <style>.cls-1{fill:#337bb6;}.cls-2{fill:#fff;fill-rule:evenodd;}</style>
  </defs>

  <g>
    <g>
       <circle class="cls-1"  cx="28.84" cy="28.84" r="28.84">
      </circle>
      <path class="cls-2" d="M44.15,34.45c-.75,0-1.06.62-1.06,1.35v2a.22.22,0,0,1-.21.21H34.12a.21.21,0,0,1-.21-.21V29.55a.22.22,0,0,1,.15-.21l9.35-3.41c2.23-.73,2.71-1.75,1.89-4l-2-5.37a2.62,2.62,0,0,0-3-2.12,4,4,0,0,0-1.08.21l-24.59,9h0c-1.94.85-1.62,1.94-1,3.39a.21.21,0,0,1-.12.29l-1,.42a.91.91,0,0,0-.54,1.15l1.77,4.87a.89.89,0,0,0,.85.6.86.86,0,0,0,.31-.06l7.23-2.64a.21.21,0,0,1,.15,0l2.46,1a.2.2,0,0,0,.15,0l6.7-2.46a.22.22,0,0,1,.29.21l-.06,9.31a.2.2,0,0,0,.21.19h10.7a.21.21,0,0,1,.21.21v1.85c0,.75.33,1.35,1.06,1.35a1.21,1.21,0,0,0,1.17-1.35V35.82a1.16,1.16,0,0,0-1.12-1.37Zm-29.32-2-1.4-3.77a.23.23,0,0,1,.13-.29l1.21-.44h0a2.8,2.8,0,0,1,.9-.23.23.23,0,0,1,.11,0l4.52,2.6a.22.22,0,0,1,0,.4l-5.18,1.85a.23.23,0,0,1-.29-.13Zm.06-7.14a.23.23,0,0,1,0-.4L41,15.62a.37.37,0,0,1,.16,0,.44.44,0,0,1,.42.29l2.69,7.52A.47.47,0,0,1,44,24l-19.2,7a.23.23,0,0,1-.19,0l-9.76-5.64Z"/>
    </g>
  </g>
</svg>