<svg xmlns="http://www.w3.org/2000/svg"   width="57.68" height="57.68"  viewBox="0 0 58.29 58.3">
  <defs>
    <style>.cls-1{fill:#337bb6;}.cls-1,.cls-2{fill-rule:evenodd;}.cls-2{fill:#fff;}</style>
  </defs>
  <title>摄像机1_3</title>
  <g id="图层_2" data-name="图层 2">
    <g id="图层_1-2" data-name="图层 1">
      <path class="cls-1" d="M0,14.88A14.88,14.88,0,0,1,14.88,0H43.41A14.87,14.87,0,0,1,58.29,14.88V43.41A14.88,14.88,0,0,1,43.41,58.3H14.88A14.88,14.88,0,0,1,0,43.41V14.88Z"/>
      <path class="cls-2" d="M46.42,35.48c-.85,0-1.19.7-1.19,1.52v2.28a.24.24,0,0,1-.24.24H35.11a.24.24,0,0,1-.24-.24V29.95a.25.25,0,0,1,.17-.24L45.6,25.87c2.52-.83,3.06-2,2.13-4.56l-2.22-6.06a3,3,0,0,0-3.34-2.39,4.49,4.49,0,0,0-1.21.24L13.2,23.22h0C11,24.17,11.35,25.41,12,27a.23.23,0,0,1-.13.33l-1.11.48a1,1,0,0,0-.61,1.3l2,5.49a1,1,0,0,0,1,.67,1,1,0,0,0,.35-.07l8.16-3a.24.24,0,0,1,.17,0l2.78,1.15a.24.24,0,0,0,.17,0l7.56-2.78a.25.25,0,0,1,.33.24l-.07,10.51a.22.22,0,0,0,.24.22H44.92a.24.24,0,0,1,.24.24v2.08c0,.85.37,1.52,1.19,1.52a1.37,1.37,0,0,0,1.32-1.52V37a1.31,1.31,0,0,0-1.26-1.54ZM13.33,33.2l-1.59-4.26a.26.26,0,0,1,.15-.33l1.37-.5h0a3.09,3.09,0,0,1,1-.26.28.28,0,0,1,.13,0l5.1,2.93a.25.25,0,0,1,0,.46l-5.84,2.08a.26.26,0,0,1-.33-.15Zm.07-8.06a.26.26,0,0,1,0-.45L42.9,14.23a.43.43,0,0,1,.17,0,.5.5,0,0,1,.48.33l3,8.49a.53.53,0,0,1-.31.65L24.62,31.53a.26.26,0,0,1-.22,0l-11-6.36Z"/>
    </g>
  </g>
</svg>