<svg xmlns="http://www.w3.org/2000/svg"   width="57.68" height="57.68"  viewBox="0 0 57.68 57.68"><defs><style>.cls-1{fill:#337bb6;}.cls-2{fill:#fff;fill-rule:evenodd;}</style></defs><title>摄像机5_1</title><g id="图层_2" data-name="图层 2"><g id="图层_1-2" data-name="图层 1"><circle class="cls-1" cx="28.84" cy="28.84" r="28.84"/><path class="cls-2" d="M35.11,16.29V10H22.57v6.27A16.31,16.31,0,0,0,35.11,46.4a16.44,16.44,0,0,0,10-15.06,16.31,16.31,0,0,0-10-15.06Zm-10-3.76H32.6V15H25.08V12.53Zm3.76,5a13.81,13.81,0,0,1,12.28,7.53H16.56a13.81,13.81,0,0,1,12.28-7.53Zm6.27,26.08a13.67,13.67,0,0,1-12.55,0V34.12a1.54,1.54,0,0,1,1.52-1.52H33.6a1.54,1.54,0,0,1,1.52,1.52v9.51ZM37.62,42V34.12a4,4,0,0,0-4-4H24.08a4,4,0,0,0-4,4V42a13.72,13.72,0,0,1-4.48-14.4H42.11A13.72,13.72,0,0,1,37.62,42Zm-8.78-6.87a3.76,3.76,0,1,0,3.76,3.76,3.77,3.77,0,0,0-3.76-3.76Zm0,5a1.25,1.25,0,1,1,1.26-1.25,1.26,1.26,0,0,1-1.26,1.25Z"/></g></g></svg>