<?xml version="1.0" encoding="utf-8"?>
<!-- Generator: Adobe Illustrator 15.0.0, SVG Export Plug-In . SVG Version: 6.00 Build 0)  -->
<!DOCTYPE svg PUBLIC "-//W3C//DTD SVG 1.1//EN" "http://www.w3.org/Graphics/SVG/1.1/DTD/svg11.dtd">
<svg version="1.1" id="图层_1" xmlns="http://www.w3.org/2000/svg" xmlns:xlink="http://www.w3.org/1999/xlink" x="0px" y="0px"
	 width="63.998px" height="64.004px" viewBox="0 0 63.998 64.004" enable-background="new 0 0 63.998 64.004" xml:space="preserve">
<g>
	<path fill="#FFFFFF" d="M32.049,1.098C14.998,1.043,1.132,14.821,1.078,31.869c-0.048,15.39,11.247,28.463,26.48,30.652
		c1.953,0.225,3.435,0.314,4.49,0.314c1.057,0,2.445,0,4.49-0.336c15.142-2.295,26.346-15.288,26.383-30.604
		C62.903,15.454,49.98,1.919,33.554,1.141L32.049,1.098z"/>
	<path fill="#1296DB" d="M63.366,31.939C63.338,14.581,49.24,0.531,31.88,0.561C14.519,0.59,0.469,14.687,0.498,32.045
		c0.026,15.604,11.499,28.826,26.944,31.057c1.491,0.166,2.99,0.256,4.49,0.27c1.003,0,2.5-0.111,4.491-0.336
		C51.884,60.803,63.36,47.56,63.366,31.939z M31.933,61.127c-16.121,0-29.189-13.067-29.189-29.188S15.812,2.754,31.933,2.754
		c16.121,0,29.189,13.067,29.189,29.186C61.122,48.06,48.053,61.127,31.933,61.127L31.933,61.127z"/>
	<path fill="#1296DB" d="M31.933,64c-1.501-0.037-3-0.148-4.49-0.338C9.952,61.146-2.187,44.929,0.33,27.44
		C2.849,9.951,19.067-2.187,36.559,0.33c17.49,2.518,29.628,18.735,27.111,36.225c-2.021,14.05-13.063,25.086-27.111,27.107
		C35.023,63.854,33.479,63.967,31.933,64z M31.933,1.139C14.882,1.084,1.016,14.862,0.963,31.91
		C0.914,47.3,12.209,60.373,27.442,62.563c1.953,0.225,3.436,0.314,4.49,0.314c1.056,0,2.447,0,4.491-0.338
		c15.141-2.293,26.345-15.288,26.383-30.6C62.788,15.495,49.865,1.96,33.438,1.182L31.933,1.139z M31.933,61.756
		c-16.43,0-29.75-13.319-29.75-29.748c0-16.43,13.32-29.748,29.75-29.748c16.403,0,29.713,13.277,29.75,29.682
		C61.72,48.382,48.42,61.74,31.977,61.777c-0.015,0-0.03,0-0.045,0L31.933,61.756L31.933,61.756z M31.933,3.383
		c-15.811,0-28.627,12.815-28.626,28.625c0,15.81,12.815,28.625,28.627,28.625c15.811,0,28.627-12.815,28.627-28.625
		c0-0.021,0-0.045,0-0.066C60.487,16.181,47.695,3.439,31.934,3.428L31.933,3.383L31.933,3.383z"/>
	<path fill="#1296DB" d="M50.434,15.618c-1.467-2.091-3.559-3.662-5.973-4.49c-8.824-3.705-13.72-2.245-16.302,3.3
		c-1.135,3.398-1.382,7.031-0.718,10.552c-0.436,0.248-0.849,0.533-1.235,0.854c-2.567-0.873-4.979-2.154-7.14-3.794
		c-3.322-2.346-7.917-1.555-10.264,1.769c-0.146,0.203-0.278,0.416-0.401,0.635c-1.088,2.34-1.403,4.966-0.897,7.498
		c1.234,9.519,4.872,13.067,11.002,12.505c3.198-0.658,6.185-2.102,8.689-4.197c0.697,0.439,1.453,0.779,2.245,1.01
		c0.307,2.4,0.307,4.83,0,7.229c-0.424,4.059,2.522,7.69,6.58,8.114c0.336,0.035,0.672,0.047,1.01,0.035
		c2.494-0.248,4.851-1.27,6.735-2.918c7.61-5.813,8.848-10.776,5.3-15.939c-2.279-2.543-5.158-4.473-8.375-5.611v-0.227
		c-0.041-0.592-0.139-1.178-0.293-1.752c2.029-1.689,4.299-3.068,6.736-4.085c3.723-1.699,5.362-6.096,3.66-9.817
		c-0.107-0.236-0.229-0.466-0.359-0.688V15.618L50.434,15.618z M18.461,42.132c-4.806,0.428-7.478-2.244-8.556-10.528
		c-0.416-2.049-0.181-4.175,0.674-6.083c1.41-2.437,4.528-3.269,6.965-1.857c0.129,0.074,0.255,0.154,0.377,0.24
		c2.073,1.555,4.337,2.838,6.736,3.816c-2.343,3.39-1.997,7.958,0.831,10.957C23.487,40.421,21.065,41.612,18.461,42.132z
		 M31.483,39.26c-1.139-0.107-2.229-0.51-3.166-1.168l-0.539-0.381c-0.157-0.137-0.292-0.314-0.449-0.473
		c-2.502-2.65-2.382-6.828,0.27-9.332c1.103-1.039,2.53-1.67,4.042-1.781h0.292c3.72-0.037,6.767,2.945,6.806,6.666
		c0.002,0.346-0.021,0.691-0.069,1.035v0.359c-0.644,3.295-3.687,5.558-7.028,5.229L31.483,39.26z M40.689,34.545
		c2.604,0.871,4.928,2.422,6.734,4.49c2.785,3.95,1.887,7.587-4.805,12.706c-1.56,1.473-3.551,2.401-5.68,2.649
		c-2.828-0.045-5.084-2.372-5.039-5.2c0.002-0.16,0.013-0.32,0.03-0.479c0.252-2.344,0.252-4.707,0-7.051
		c4.192,0.027,7.817-2.917,8.644-7.026L40.689,34.545z M39.611,28.057c-0.465-0.84-1.063-1.598-1.772-2.246
		c-2.244-1.93-5.313-2.59-8.151-1.75v-0.226c-0.588-2.792-0.417-5.692,0.494-8.397c2.021-4.49,5.59-5.41,13.471-2.244
		c1.973,0.67,3.685,1.943,4.896,3.637c1.412,2.448,0.571,5.579-1.877,6.991c-0.12,0.068-0.242,0.134-0.368,0.193
		c-2.411,1.059-4.675,2.424-6.734,4.063L39.611,28.057z"/>
   <animateTransform attributeName="transform"
        attributeType="XML"
        type="rotate"
        from="0 32 32"
        to="360 32 32"
        dur="5s"
        repeatCount="indefinite"/>
</g>
</svg>
